<svg xmlns="http://www.w3.org/2000/svg" viewBox="0 0 400 400">
  <g transform="translate(200,200)">
    <circle cx="0" cy="0" r="110" fill="#2B2B2B"/>
    <path d="M -110 -20 L -150 -70 L -95 -55 Z" fill="#2B2B2B"/>
    <path d="M 110 -20 L 150 -70 L 95 -55 Z" fill="#2B2B2B"/>
    <circle cx="-38" cy="-10" r="12" fill="#F05A4F"/>
    <circle cx="38" cy="-10" r="12" fill="#F05A4F"/>
    <path d="M 0 15 L -14 35 L 14 35 Z" fill="#FFFFFF"/>
    <path d="M 0 38 L 0 55" stroke="#FFFFFF" stroke-width="4"/>
    <path d="M 0 48 Q -30 60 -55 50" stroke="#FFFFFF" stroke-width="4" fill="none"/>
    <path d="M 0 48 Q 30 60 55 50" stroke="#FFFFFF" stroke-width="4" fill="none"/>
    <g fill="#F05A4F">
      <circle cx="-60" cy="-30" r="5"/>
      <circle cx="-75" cy="0" r="5"/>
      <circle cx="-65" cy="30" r="5"/>
      <circle cx="60" cy="-30" r="5"/>
      <circle cx="75" cy="0" r="5"/>
      <circle cx="65" cy="30" r="5"/>
    </g>
  </g>
</svg>
